<svg id="Layer_1" data-name="Layer 1" xmlns="http://www.w3.org/2000/svg" viewBox="0 0 1387.95 512"><title>logo</title><polygon points="256 0 0 256 0 0 256 0" style="fill:#20a4dd"/><polygon points="0 256 256 512 0 512 0 256" style="fill:#20a4dd"/><polygon points="256 512 512 256 512 512 256 512" style="fill:#20a4dd"/><polygon points="512 0 512 256 427 171 257 342 171 256 342 86 256 0 512 0" style="fill:#6fbe44"/><path d="M707.82,175.77q-4.09,17.81-15.58,27.38-11.84,9.48-28,9.48-14.64-.35-24.42-7.38-10-6.77-14.47-15.64-1.37-2.9-2.47-5.54a37,37,0,0,1-1.7-6.86q-1.28-7.73-1.28-29.71,0-22.32,1.28-29.88a36.14,36.14,0,0,1,4.17-12.22q4.51-8.88,14.47-15.82,9.79-7,24.43-7.21,18,0.18,29.29,11a48.71,48.71,0,0,1,14.3,26.94h-20a28.36,28.36,0,0,0-8.36-13.21,24.13,24.13,0,0,0-15.35-5.37,25.38,25.38,0,0,0-11.43,2.73,23.93,23.93,0,0,0-7.84,6.61A21.57,21.57,0,0,0,640,121.69q-1.36,6.87-1.36,25.81T640,173.13A21.69,21.69,0,0,0,644.9,184a22.2,22.2,0,0,0,7.85,6.43,21.57,21.57,0,0,0,11.43,2.91q15.87,0,23.71-17.53h19.93Z" style="fill:#6fbe44"/><path d="M720,147.5q0-22.37,1.28-29.95a36.24,36.24,0,0,1,4.17-12.24q4.51-8.84,14.46-15.76,9.78-7,24.42-7.18,14.81,0.18,24.68,7.21t14.13,15.82a30.05,30.05,0,0,1,4.34,12.22q1.1,7.56,1.11,29.88,0,22-1.11,29.71t-4.34,12.39q-4.34,8.88-14.13,15.64-9.87,7-24.67,7.38-14.64-.35-24.42-7.38-10-6.77-14.47-15.64-1.36-2.9-2.47-5.54a36.88,36.88,0,0,1-1.7-6.86Q720,169.47,720,147.5Zm18.79,0q0,18.94,1.36,25.63A21.71,21.71,0,0,0,745,184a22.19,22.19,0,0,0,7.84,6.43,21.56,21.56,0,0,0,11.43,2.91A22.65,22.65,0,0,0,776,190.39a21,21,0,0,0,7.5-6.43,22.89,22.89,0,0,0,5-10.83q1.28-6.69,1.28-25.63t-1.28-25.81a22.77,22.77,0,0,0-5-10.66,22.66,22.66,0,0,0-7.5-6.61,26.72,26.72,0,0,0-11.68-2.73,25.38,25.38,0,0,0-11.43,2.73A23.93,23.93,0,0,0,745,111a21.56,21.56,0,0,0-4.86,10.66Q738.78,128.56,738.78,147.5Z" style="fill:#6fbe44"/><path d="M834,83.43h43.43Q902.61,83.6,915.22,105a39.35,39.35,0,0,1,5.7,15.12q0.93,7.91.94,27.33,0,20.65-1.45,28.83a33,33,0,0,1-2,7.38,69.15,69.15,0,0,1-3.49,6.59,43.84,43.84,0,0,1-15.16,14.94q-9.62,6.33-23.59,6.33H834V83.43ZM852.77,193.3h22.5q15.85,0,23-11.19a21.74,21.74,0,0,0,4-10.48q0.77-6.25.77-23.43,0-16.73-.77-24a22.43,22.43,0,0,0-4.86-11.71q-7.84-11.19-22.16-10.83h-22.5v91.6Z" style="fill:#6fbe44"/><path d="M947.36,83.43h79.29V101.7h-60.5v36.67h51.64v17.21H966.15V193.3h60.5v18.27H947.36V83.43Z" style="fill:#6fbe44"/><path d="M1090.62,83.43h79.29V101.7h-60.5v37.9h51.64v17.21h-51.64v54.76h-18.79V83.43Z" style="fill:#6fbe44"/><path d="M1183.08,147.5q0-22.37,1.28-29.95a36.24,36.24,0,0,1,4.17-12.24Q1193,96.47,1203,89.55q9.78-7,24.42-7.18,14.81,0.18,24.68,7.21t14.13,15.82a30.05,30.05,0,0,1,4.34,12.22q1.1,7.56,1.11,29.88,0,22-1.11,29.71t-4.34,12.39q-4.34,8.88-14.13,15.64-9.87,7-24.67,7.38-14.64-.35-24.42-7.38-10-6.77-14.47-15.64-1.36-2.9-2.47-5.54a36.88,36.88,0,0,1-1.7-6.86Q1183.08,169.47,1183.08,147.5Zm18.79,0q0,18.94,1.36,25.63A21.71,21.71,0,0,0,1208.1,184a22.19,22.19,0,0,0,7.84,6.43,21.56,21.56,0,0,0,11.43,2.91,22.65,22.65,0,0,0,11.68-2.91,21,21,0,0,0,7.5-6.43,22.89,22.89,0,0,0,5-10.83q1.28-6.69,1.28-25.63t-1.28-25.81a22.77,22.77,0,0,0-5-10.66,22.66,22.66,0,0,0-7.5-6.61,26.72,26.72,0,0,0-11.68-2.73,25.38,25.38,0,0,0-11.43,2.73,23.93,23.93,0,0,0-7.84,6.61,21.56,21.56,0,0,0-4.86,10.66Q1201.87,128.56,1201.87,147.5Z" style="fill:#6fbe44"/><path d="M1297.07,83.43h48.5q15.51,0,25.31,8.44,11.79,9.58,12.31,27.33-0.34,26.1-24,35.51L1388,211.57h-22.33l-25.69-54.76h-24.07v54.76h-18.79V83.43Zm18.79,56.17h28.5q10.58-.17,15.88-6.34a20.19,20.19,0,0,0,5.21-14.1q-0.17-10-6.23-14.54-4.78-4-13.83-4h-29.53v39Z" style="fill:#6fbe44"/><path d="M624.1,299.43h45a69.94,69.94,0,0,1,14.15,1.41,37.69,37.69,0,0,1,13.8,7.56,30.65,30.65,0,0,1,9.52,12.3A40.81,40.81,0,0,1,710.39,339q0,14.24-9.72,25.92-10,12.3-29.15,12.66H642.89v50H624.1V299.43Zm18.79,59.86h27.89q10.49-.18,15.78-6.71a22.22,22.22,0,0,0,5-14.13,25.74,25.74,0,0,0-2-10.86,16,16,0,0,0-6-6.27,23.06,23.06,0,0,0-13.48-3.62H642.89v41.59Z" style="fill:#20a4dd"/><path d="M781,398.91H734l-9.53,28.66H704.52l45.12-128.14h15.75L810.5,427.57H790.66Zm-5.36-17.21-18-56.06h-0.34l-18,56.06h36.26Z" style="fill:#20a4dd"/><path d="M827.21,299.43H846v66h0.37l51.1-66h22.31L880,350,924,427.57H901.64l-33.83-62.66L846,388.55v39H827.21V299.43Z" style="fill:#20a4dd"/><path d="M940.59,299.43h18.79V427.57H940.59V299.43Z" style="fill:#20a4dd"/><path d="M988.53,396.53q14.82,12.6,35.27,12.77,24.19-.35,24.54-17.86,0.18-14.34-16.18-17.24-7.49-1.05-16.43-2.38-16-2.73-24.35-12.23-8.6-9.76-8.6-23.75,0-16.8,10.8-27.09,10.46-10.21,29.68-10.38,23.14,0.53,40.23,13.24l-10.48,16a55.63,55.63,0,0,0-30.75-9.86q-8.69,0-14.48,4.49-6,4.66-6.22,13.9a14.37,14.37,0,0,0,4.17,10q4.17,4.57,13.37,6.33,5.11,0.88,14,2,17.46,2.46,25.8,12.93a37.12,37.12,0,0,1,8.26,23.93q-0.94,36.77-43.55,37.3-27.56,0-47.38-17.49Z" style="fill:#20a4dd"/><path d="M1111.36,316.65h-34V299.43h86.85v17.22h-34V427.57h-18.79V316.65Z" style="fill:#20a4dd"/><path d="M1230.52,398.91h-47.07l-9.53,28.66H1154l45.12-128.14h15.75L1260,427.57h-19.83Zm-5.36-17.21-18-56.06h-0.34l-18,56.06h36.26Z" style="fill:#20a4dd"/><path d="M1276.68,299.43h17.72l56.21,91.1H1351v-91.1h18.79V427.57h-17.8l-56.13-91.1h-0.34v91.1h-18.79V299.43Z" style="fill:#20a4dd"/></svg>